<svg id="Layer_1" data-name="Layer 1" xmlns="http://www.w3.org/2000/svg" xmlns:xlink="http://www.w3.org/1999/xlink" viewBox="0 0 876 242"><defs><style>.cls-1{fill:url(#linear-gradient);}.cls-2{fill:url(#linear-gradient-2);}</style><linearGradient id="linear-gradient" x1="251.4" y1="-50.07" x2="566.97" y2="440.71" gradientUnits="userSpaceOnUse"><stop offset="0" stop-color="#6156f9"/><stop offset="1" stop-color="#1a129f"/></linearGradient><linearGradient id="linear-gradient-2" x1="695.81" y1="101.19" x2="-90.31" y2="334.68" xlink:href="#linear-gradient"/></defs><path class="cls-1" d="M876,238.27V242H0V117.53l3.92-3C105.77,35.93,196.07-26.78,328.76,75.61q9.11,7,18.15,13.4l0,0C576.57,251.13,768.88,105.18,876,238.27Z" transform="translate(0 0)"/><path class="cls-2" d="M876,119.13V242H0V113.53c1.3.31,2.6.64,3.92,1a602.06,602.06,0,0,1,62.89,20C188.4,180.06,273.72,137.84,346.91,89l0,0C441.15,26.13,515.26-47.66,620.75,40.77,714,119,803.42,116,876,119.13Z" transform="translate(0 0)"/></svg>