<svg id="Layer_1" data-name="Layer 1" xmlns="http://www.w3.org/2000/svg" xmlns:xlink="http://www.w3.org/1999/xlink" viewBox="0 0 876.04 349.87"><defs><style>.cls-1{fill:url(#linear-gradient);}.cls-2{fill:url(#linear-gradient-2);}</style><linearGradient id="linear-gradient" x1="257.05" y1="865.02" x2="568.57" y2="380.54" gradientUnits="userSpaceOnUse"><stop offset="0" stop-color="#6156f9"/><stop offset="1" stop-color="#1a129f"/></linearGradient><linearGradient id="linear-gradient-2" x1="708.06" y1="654.71" x2="-107.1" y2="412.59" xlink:href="#linear-gradient"/></defs><path class="cls-1" d="M876,588.14v111.6H0V467.4l3.92-3c101.85-78.6,192.15-141.31,324.84-38.92q9.12,7,18.18,13.42C576.57,601,768.88,455.05,876,588.14Z" transform="translate(0 -349.87)"/><path class="cls-2" d="M876,469V699.74H0V463.4c1.3.31,2.6.64,3.92,1a600.52,600.52,0,0,1,62.89,20c121.61,45.54,206.93,3.3,280.13-45.54C441.15,376,515.26,302.21,620.75,390.64,714,468.85,803.42,465.83,876,469Z" transform="translate(0 -349.87)"/></svg>